<?xml version="1.0" encoding="UTF-8"?>
<svg width="29px" height="32px" viewBox="0 0 29 32" version="1.1" xmlns="http://www.w3.org/2000/svg" xmlns:xlink="http://www.w3.org/1999/xlink">
    <!-- Generator: Sketch 52.2 (67145) - http://www.bohemiancoding.com/sketch -->
    <title>mi1</title>
    <desc>Created with Sketch.</desc>
    <g id="Desktop" stroke="none" stroke-width="1" fill="none" fill-rule="evenodd">
        <g id="Main-Page/1" transform="translate(-104.000000, -205.000000)" fill="#3C3C3C" fill-rule="nonzero">
            <g id="mi1" transform="translate(105.000000, 206.000000)">
                <path d="M24.9594156,6.82121026e-16 L9.13149351,6.82121026e-16 C8.12332388,0.00111102474 7.30632206,0.806348016 7.30519481,1.8 L7.30519481,7.2 L1.8262987,7.2 C0.818129074,7.20111102 0.00112725725,8.00634802 0,9 L0,28.2 C0.00112725725,29.193652 0.818129074,29.998889 1.8262987,30 L10.349026,30 C11.3571956,29.998889 12.1741974,29.193652 12.1753247,28.2 L12.1753247,27.6 L24.9594156,27.6 C25.9675852,27.598889 26.784587,26.793652 26.7857143,25.8 L26.7857143,1.8 C26.784587,0.806348016 25.9675852,0.00111102474 24.9594156,6.82121026e-16 Z M10.9577922,27.6 L10.9577922,28.2 C10.9574165,28.5312173 10.6850825,28.7996297 10.349026,28.8 L1.8262987,28.8 C1.49024216,28.7996297 1.21790822,28.5312173 1.21753247,28.2 L1.21753247,9 C1.21790822,8.66878267 1.49024216,8.40037034 1.8262987,8.4 L10.349026,8.4 C10.6850825,8.40037034 10.9574165,8.66878267 10.9577922,9 L10.9577922,27.6 Z M25.5681818,25.8 C25.5678061,26.1312173 25.2954721,26.3996297 24.9594156,26.4 L12.1753247,26.4 L12.1753247,9 C12.1741974,8.00634802 11.3571956,7.20111102 10.349026,7.2 L8.52272727,7.2 L8.52272727,1.8 C8.52310303,1.46878267 8.79543696,1.20037034 9.13149351,1.2 L24.9594156,1.2 C25.2954721,1.20037034 25.5678061,1.46878267 25.5681818,1.8 L25.5681818,25.8 Z" id="Shape" stroke="#3C3C3C" stroke-width="0.6"></path>
                <circle id="Oval" cx="13.3928571" cy="3.75" r="1"></circle>
                <path d="M17.6785714,3.21428571 L16.6071429,3.21428571 C16.311276,3.21428571 16.0714286,3.45413317 16.0714286,3.75 C16.0714286,4.04586683 16.311276,4.28571429 16.6071429,4.28571429 L17.6785714,4.28571429 C17.9744383,4.28571429 18.2142857,4.04586683 18.2142857,3.75 C18.2142857,3.45413317 17.9744383,3.21428571 17.6785714,3.21428571 Z" id="Shape"></path>
                <path d="M5.89285714,10.7142857 L4.82142857,10.7142857 C4.52556174,10.7142857 4.28571429,10.9541332 4.28571429,11.25 C4.28571429,11.5458668 4.52556174,11.7857143 4.82142857,11.7857143 L5.89285714,11.7857143 C6.18872397,11.7857143 6.42857143,11.5458668 6.42857143,11.25 C6.42857143,10.9541332 6.18872397,10.7142857 5.89285714,10.7142857 Z" id="Shape"></path>
                <circle id="Oval" cx="2.67857143" cy="11.25" r="1"></circle>
            </g>
        </g>
    </g>
</svg>